# xmcd
#
# Track frame offsets:
#	150
#	17688
#	34040
#	49093
#	65375
#	83710
#	103951
#	133729
#	156515
#	177376
#	193900
#	211695
#
# Disc length: 3127 seconds
#
# Revision: 0
# Processed by: cddbd v1.5.2PL0 Copyright (c) Steve Scherf et al.
# Submitted via: audiograbber 1.83.01
#
DISCID=a70c350c
DTITLE=Sabrina - Sabrina-discomania
DYEAR=2000
DGENRE=Pop
TTITLE0=Boys
TTITLE1=Hoy Girl
TTITLE2=Get Ready
TTITLE3=Kiss
TTITLE4=Kiss Me
TTITLE5=Like A Yo Yo
TTITLE6=All Of Me
TTITLE7=Doctor's Order
TTITLE8=Funky Girl
TTITLE9=My Chico
TTITLE10=Pirate Of Love
TTITLE11=Guys And Dolls
EXTD=
EXTT0=
EXTT1=
EXTT2=
EXTT3=
EXTT4=
EXTT5=
EXTT6=
EXTT7=
EXTT8=
EXTT9=
EXTT10=
EXTT11=
PLAYORDER=
